<?xml version="1.0" encoding="UTF-8" standalone="no"?>
<svg
   width="200"
   height="200"
   viewBox="0 0 200 200"
   fill="none"
   version="1.1"
   id="svg6"
   xmlns="http://www.w3.org/2000/svg">
  <defs
     id="defs6" />
  <path
     d="m 200,100 c 0,15.781 -3.735,31.338 -10.899,45.399 -7.165,14.061 -17.555,26.227 -30.322,35.503 -12.768,9.276 -27.549,15.398 -43.136,17.867 -15.586,2.469 -31.536,1.213 -46.5447,-3.663 L 84.2446,148.49 c 7.6523,2.486 15.7844,3.126 23.7314,1.868 7.947,-1.259 15.483,-4.381 21.993,-9.11 6.509,-4.729 11.807,-10.932 15.459,-18.101 3.653,-7.169 5.557,-15.101 5.557,-23.147 z"
     fill="#0be3bf"
     id="path1" />
  <path
     d="m 165.372,147.206 -4.085,-16.033 1.908,-1.299 4.229,17.763 -1.23,0.838 z m -12.667,-10.188 13.433,9.667 0.88,1.229 -1.23,0.838 -15.001,-10.427 z m 3.798,5.056 -1.042,-1.53 7.923,-5.397 1.042,1.531 z m 2.81,12.223 -1.802,1.227 -8.747,-12.843 -1.231,-2.14 1.647,-1.121 z m -15.387,-3.501 -0.138,-0.203 c -0.519,-0.762 -0.91,-1.531 -1.174,-2.306 -0.259,-0.769 -0.377,-1.511 -0.353,-2.226 0.023,-0.716 0.196,-1.377 0.52,-1.985 0.323,-0.608 0.811,-1.134 1.463,-1.578 0.665,-0.453 1.326,-0.738 1.984,-0.855 0.655,-0.106 1.301,-0.059 1.938,0.14 0.637,0.2 1.268,0.536 1.892,1.008 0.618,0.477 1.228,1.074 1.829,1.789 l 0.606,0.891 c 0.451,0.828 0.785,1.617 1.002,2.366 0.212,0.755 0.293,1.465 0.246,2.13 -0.043,0.672 -0.237,1.291 -0.58,1.855 -0.339,0.572 -0.837,1.081 -1.496,1.53 -0.659,0.449 -1.331,0.718 -2.017,0.807 -0.682,0.095 -1.354,0.024 -2.017,-0.214 -0.67,-0.234 -1.32,-0.619 -1.949,-1.154 -0.625,-0.529 -1.21,-1.194 -1.756,-1.995 z m 1.663,-1.43 0.139,0.203 c 0.356,0.523 0.739,0.981 1.148,1.373 0.413,0.399 0.846,0.701 1.296,0.904 0.455,0.21 0.925,0.296 1.41,0.259 0.489,-0.031 0.989,-0.22 1.499,-0.567 0.452,-0.308 0.793,-0.654 1.024,-1.038 0.223,-0.379 0.361,-0.78 0.413,-1.203 0.057,-0.417 0.045,-0.844 -0.035,-1.28 -0.082,-0.426 -0.209,-0.841 -0.38,-1.245 l -1.59,-2.334 c -0.411,-0.382 -0.875,-0.703 -1.394,-0.965 -0.52,-0.25 -1.067,-0.374 -1.642,-0.37 -0.58,0.008 -1.164,0.212 -1.752,0.612 -0.484,0.33 -0.832,0.708 -1.042,1.135 -0.212,0.438 -0.306,0.904 -0.282,1.397 0.018,0.499 0.132,1.012 0.341,1.541 0.209,0.529 0.491,1.055 0.847,1.578 z m -3.593,2.447 0.152,0.223 c 0.514,0.755 0.882,1.531 1.102,2.326 0.225,0.802 0.293,1.582 0.205,2.341 -0.083,0.766 -0.328,1.482 -0.736,2.147 -0.403,0.671 -0.969,1.255 -1.698,1.752 -0.737,0.501 -1.491,0.817 -2.263,0.946 -0.774,0.14 -1.533,0.108 -2.276,-0.095 -0.745,-0.192 -1.45,-0.539 -2.114,-1.042 -0.659,-0.496 -1.246,-1.122 -1.76,-1.877 l -0.152,-0.223 c -0.515,-0.755 -0.882,-1.531 -1.102,-2.326 -0.221,-0.795 -0.286,-1.578 -0.196,-2.348 0.088,-0.759 0.333,-1.475 0.736,-2.146 0.401,-0.661 0.969,-1.241 1.705,-1.743 0.736,-0.501 1.488,-0.82 2.256,-0.955 0.773,-0.129 1.531,-0.098 2.277,0.094 0.743,0.203 1.444,0.553 2.103,1.049 0.66,0.496 1.247,1.122 1.761,1.877 z m -1.64,1.443 -0.152,-0.222 c -0.356,-0.523 -0.754,-0.976 -1.193,-1.357 -0.435,-0.375 -0.896,-0.656 -1.383,-0.844 -0.494,-0.184 -0.999,-0.251 -1.514,-0.203 -0.511,0.055 -1.015,0.252 -1.512,0.59 -0.491,0.335 -0.852,0.727 -1.084,1.178 -0.233,0.462 -0.352,0.954 -0.355,1.476 -0.004,0.522 0.089,1.054 0.279,1.596 0.187,0.553 0.459,1.091 0.815,1.614 l 0.152,0.223 c 0.352,0.517 0.749,0.96 1.19,1.331 0.439,0.381 0.906,0.663 1.4,0.847 0.491,0.194 0.995,0.267 1.51,0.219 0.509,-0.044 1.012,-0.235 1.509,-0.574 0.491,-0.334 0.853,-0.732 1.087,-1.194 0.227,-0.457 0.343,-0.953 0.349,-1.486 0.003,-0.522 -0.092,-1.057 -0.286,-1.606 -0.189,-0.542 -0.46,-1.071 -0.812,-1.588 z m -18.4,8.251 5.489,8.058 -1.801,1.227 -7.138,-10.48 1.714,-1.167 z m 1.166,2.439 -0.733,0.527 c -0.475,-0.697 -0.841,-1.393 -1.097,-2.089 -0.258,-0.684 -0.373,-1.352 -0.345,-2.005 0.029,-0.652 0.221,-1.28 0.577,-1.881 0.36,-0.595 0.914,-1.148 1.663,-1.658 0.511,-0.348 1.029,-0.592 1.557,-0.734 0.52,-0.137 1.038,-0.154 1.553,-0.051 0.514,0.103 1.025,0.346 1.531,0.729 0.5,0.387 0.988,0.93 1.463,1.627 l 4.605,6.76 -1.792,1.221 -4.618,-6.78 c -0.321,-0.471 -0.639,-0.827 -0.953,-1.066 -0.317,-0.229 -0.627,-0.372 -0.931,-0.43 -0.306,-0.047 -0.596,-0.029 -0.87,0.054 -0.281,0.088 -0.544,0.215 -0.79,0.382 -0.762,0.519 -1.266,1.075 -1.514,1.669 -0.243,0.601 -0.292,1.216 -0.147,1.845 0.142,0.64 0.423,1.266 0.841,1.88 z m -4.597,11.695 -0.937,-1.376 5.666,-3.859 0.937,1.376 z m 5.483,-0.006 -1.792,1.221 -7.105,-10.432 c -0.242,-0.355 -0.479,-0.585 -0.712,-0.692 -0.233,-0.106 -0.456,-0.128 -0.67,-0.068 -0.214,0.061 -0.421,0.16 -0.621,0.296 -0.149,0.101 -0.295,0.219 -0.439,0.355 -0.146,0.147 -0.254,0.258 -0.325,0.335 l -1.006,-1.456 c 0.112,-0.142 0.27,-0.311 0.476,-0.508 0.196,-0.2 0.455,-0.409 0.778,-0.629 0.439,-0.299 0.902,-0.487 1.388,-0.563 0.487,-0.076 0.979,0.014 1.475,0.271 0.495,0.268 0.98,0.751 1.455,1.448 z"
     fill="#ffffff"
     id="path6" />
</svg>
