<?xml version="1.0" encoding="UTF-8" standalone="no"?>
<svg
   width="200"
   height="200"
   viewBox="0 0 200 200"
   fill="none"
   version="1.1"
   id="svg6"
   xmlns="http://www.w3.org/2000/svg"><defs
     id="defs6" /><path
     d="M50 13.3975C63.6668 5.50694 79.007 0.962961 94.7664 0.137046C110.526 -0.688868 126.257 2.22673 140.674 8.64546C155.09 15.0642 167.783 24.8038 177.715 37.068C187.646 49.3321 194.534 63.7726 197.815 79.2088L149.871 89.3995C148.198 81.5293 144.687 74.1667 139.623 67.9138C134.56 61.6609 128.088 56.6951 120.738 53.4225C113.387 50.1498 105.367 48.6633 97.3316 49.0844C89.2966 49.5055 81.4753 51.8223 74.5073 55.8453L50 13.3975Z"
     fill="#0BE3BF"
     id="path3" /><g
     style="fill:#ffffff"
     id="g9"
     transform="matrix(0.04,0,0,0.04,114.233,49.76)"><path
       d="m 160,-80 q -33,0 -56.5,-23.5 Q 80,-127 80,-160 v -480 q 0,-33 23.5,-56.5 Q 127,-720 160,-720 h 160 l 132,-132 q 12,-12 28,-12 16,0 28,12 l 132,132 h 160 q 33,0 56.5,23.5 23.5,23.5 23.5,56.5 v 480 q 0,33 -23.5,56.5 Q 833,-80 800,-80 Z m 0,-80 H 800 V -640 H 160 Z m 290,-120 -74,-99 q -6,-8 -16,-8 -10,0 -16,8 l -80,107 q -8,10 -2,21 6,11 18,11 h 400 q 12,0 18,-11 6,-11 -2,-21 L 586,-419 q -6,-8 -16,-8 -10,0 -16,8 z m 250,-160 q 25,0 42.5,-17.5 Q 760,-475 760,-500 760,-525 742.5,-542.5 725,-560 700,-560 q -25,0 -42.5,17.5 -17.5,17.5 -17.5,42.5 0,25 17.5,42.5 Q 675,-440 700,-440 Z M 404,-720 h 152 l -76,-76 z m -244,560 v -480 z"
       id="path1-62"
       style="fill:#ffffff" /></g></svg>
