<?xml version="1.0" encoding="UTF-8" standalone="no"?>
<svg
   width="200"
   height="200"
   viewBox="0 0 200 200"
   fill="none"
   version="1.1"
   id="svg6"
   xmlns="http://www.w3.org/2000/svg"><defs
     id="defs6" /><path
     d="M200 100C200 115.781 196.265 131.338 189.101 145.399C181.936 159.46 171.546 171.626 158.779 180.902C146.011 190.178 131.23 196.3 115.643 198.769C100.057 201.238 84.107 199.982 69.0983 195.106L84.2446 148.49C91.8969 150.976 100.029 151.616 107.976 150.358C115.923 149.099 123.459 145.977 129.969 141.248C136.478 136.519 141.776 130.316 145.428 123.147C149.081 115.978 150.985 108.046 150.985 100H200Z"
     fill="#0BE3BF"
     id="path1" /><g
     style="fill:#ffffff"
     id="g7"
     transform="matrix(0.05,0,0,0.05,119.43349,181.63267)"><path
       d="m 480,-480 q -66,0 -113,-47 -47,-47 -47,-113 0,-66 47,-113 47,-47 113,-47 66,0 113,47 47,47 47,113 0,66 -47,113 -47,47 -113,47 z m -320,240 v -32 q 0,-34 17.5,-62.5 17.5,-28.5 46.5,-43.5 62,-31 126,-46.5 64,-15.5 130,-15.5 66,0 130,15.5 64,15.5 126,46.5 29,15 46.5,43.5 17.5,28.5 17.5,62.5 v 32 q 0,33 -23.5,56.5 Q 753,-160 720,-160 H 240 q -33,0 -56.5,-23.5 Q 160,-207 160,-240 Z m 80,0 h 480 v -32 q 0,-11 -5.5,-20 -5.5,-9 -14.5,-14 -54,-27 -109,-40.5 -55,-13.5 -111,-13.5 -56,0 -111,13.5 -55,13.5 -109,40.5 -9,5 -14.5,14 -5.5,9 -5.5,20 z m 240,-320 q 33,0 56.5,-23.5 Q 560,-607 560,-640 560,-673 536.5,-696.5 513,-720 480,-720 q -33,0 -56.5,23.5 -23.5,23.5 -23.5,56.5 0,33 23.5,56.5 23.5,23.5 56.5,23.5 z m 0,-80 z m 0,400 z"
       id="path1-6"
       style="fill:#ffffff" /></g></svg>
