<?xml version="1.0" encoding="UTF-8" standalone="no"?>
<svg
   width="200"
   height="200"
   viewBox="0 0 200 200"
   fill="none"
   version="1.1"
   id="svg6"
   xmlns="http://www.w3.org/2000/svg">
  <defs
     id="defs6" />
  <path
     d="M 50,13.3975 C 63.6668,5.50694 79.007,0.962961 94.7664,0.137046 110.526,-0.688868 126.257,2.22673 140.674,8.64546 155.09,15.0642 167.783,24.8038 177.715,37.068 c 9.931,12.2641 16.819,26.7046 20.1,42.1408 l -47.944,10.1907 c -1.673,-7.8702 -5.184,-15.2328 -10.248,-21.4857 -5.063,-6.2529 -11.535,-11.2187 -18.885,-14.4913 -7.351,-3.2727 -15.371,-4.7592 -23.4064,-4.3381 -8.035,0.4211 -15.8563,2.7379 -22.8243,6.7609 z"
     fill="#0be3bf"
     id="path3" />
  <path
     d="m 119.42,21.4769 -2.616,-1.4038 0.743,-1.3417 2.598,1.3945 c 0.895,0.4802 1.741,0.694 2.538,0.6412 0.8,-0.0584 1.53,-0.3461 2.192,-0.8629 0.67,-0.5195 1.25,-1.2354 1.74,-2.1475 l 0.41,-0.7658 c 0.385,-0.7171 0.641,-1.4001 0.767,-2.0489 0.13,-0.6545 0.132,-1.2632 0.005,-1.8261 -0.123,-0.5687 -0.372,-1.0827 -0.746,-1.542 -0.369,-0.4563 -0.863,-0.8507 -1.482,-1.1832 l -2.823,-1.51452 0.73,-1.35959 2.822,1.51456 c 0.821,0.4402 1.496,0.97965 2.025,1.61825 0.532,0.6328 0.903,1.3382 1.114,2.1162 0.219,0.7753 0.265,1.598 0.138,2.4682 -0.124,0.8644 -0.429,1.7498 -0.915,2.6562 l -0.402,0.7487 c -0.486,0.9063 -1.057,1.653 -1.712,2.24 -0.652,0.5812 -1.364,0.9932 -2.137,1.2359 -0.767,0.2458 -1.575,0.3186 -2.422,0.2184 -0.839,-0.1028 -1.695,-0.3882 -2.567,-0.8561 z m 4.994,-13.457 -6.723,12.5289 -1.661,-0.8912 6.723,-12.52888 z m 9.666,9.3319 -4.996,9.3106 -1.601,-0.8589 4.996,-9.3106 z m -0.396,-3.3931 c 0.139,-0.2582 0.333,-0.4346 0.583,-0.5293 0.257,-0.0917 0.539,-0.0544 0.849,0.1118 0.304,0.1632 0.489,0.3768 0.554,0.6408 0.071,0.2671 0.037,0.5297 -0.101,0.7879 -0.133,0.2467 -0.33,0.4143 -0.592,0.5029 -0.253,0.0859 -0.531,0.0472 -0.835,-0.1159 -0.31,-0.1662 -0.499,-0.3785 -0.567,-0.6368 -0.06,-0.261 -0.023,-0.5148 0.109,-0.7614 z m 8.984,8.0014 1.445,0.7758 -4.89,9.1126 c -0.44,0.8204 -0.982,1.431 -1.625,1.8318 -0.644,0.4009 -1.344,0.5904 -2.101,0.5685 -0.754,-0.013 -1.518,-0.2273 -2.293,-0.6429 -0.321,-0.1724 -0.672,-0.4272 -1.052,-0.7644 -0.378,-0.3284 -0.712,-0.7254 -1.001,-1.1911 -0.287,-0.4568 -0.463,-0.9614 -0.529,-1.5138 l 1.343,-0.4987 c 0.137,0.6798 0.369,1.2253 0.695,1.6367 0.332,0.4144 0.707,0.734 1.126,0.9587 0.505,0.2709 0.991,0.4102 1.46,0.4179 0.469,0.0077 0.904,-0.121 1.305,-0.3861 0.403,-0.2563 0.75,-0.6541 1.039,-1.1934 l 3.832,-7.1421 z m -8.964,1.3185 0.096,-0.1807 c 0.382,-0.7114 0.812,-1.3121 1.289,-1.8022 0.486,-0.4928 0.999,-0.8639 1.539,-1.1134 0.546,-0.2464 1.106,-0.3599 1.679,-0.3404 0.577,0.0137 1.149,0.173 1.717,0.4777 0.585,0.314 1.04,0.6913 1.365,1.1317 0.334,0.4378 0.548,0.9334 0.643,1.4866 0.104,0.5506 0.098,1.1461 -0.016,1.7865 -0.115,0.6404 -0.323,1.3233 -0.623,2.0486 l -0.425,0.7917 c -0.429,0.6488 -0.882,1.1964 -1.358,1.6429 -0.47,0.4496 -0.964,0.7834 -1.48,1.0015 -0.51,0.2212 -1.041,0.3166 -1.594,0.2861 -0.549,-0.0363 -1.12,-0.2129 -1.71,-0.53 -0.557,-0.2986 -0.999,-0.6871 -1.326,-1.1655 -0.321,-0.4753 -0.528,-1.0114 -0.622,-1.6083 -0.093,-0.5969 -0.072,-1.2284 0.064,-1.8944 0.144,-0.6687 0.398,-1.3415 0.762,-2.0184 z m 1.688,0.6735 -0.097,0.1807 c -0.249,0.4647 -0.437,0.9253 -0.564,1.3819 -0.121,0.4596 -0.167,0.8966 -0.138,1.3111 0.034,0.4175 0.159,0.7983 0.373,1.1424 0.218,0.3383 0.542,0.6229 0.972,0.8538 0.528,0.2832 1.024,0.4053 1.488,0.3663 0.464,-0.0391 0.895,-0.1883 1.293,-0.4477 0.403,-0.2563 0.778,-0.5688 1.124,-0.9375 l 1.112,-2.0738 c 0.107,-0.3494 0.172,-0.7057 0.197,-1.0691 0.034,-0.3661 0.009,-0.7192 -0.074,-1.0595 -0.075,-0.3429 -0.224,-0.6633 -0.448,-0.961 -0.225,-0.2978 -0.538,-0.5544 -0.939,-0.7699 -0.436,-0.234 -0.861,-0.3438 -1.275,-0.3295 -0.406,0.0116 -0.793,0.1212 -1.163,0.329 -0.362,0.2051 -0.702,0.488 -1.021,0.8488 -0.31,0.358 -0.59,0.7694 -0.84,1.234 z m 12.869,1.0094 -4.996,9.3106 -1.601,-0.8589 4.996,-9.3106 z m -0.396,-3.3931 c 0.139,-0.2582 0.333,-0.4346 0.583,-0.5293 0.257,-0.0917 0.539,-0.0544 0.849,0.1119 0.304,0.1631 0.489,0.3767 0.554,0.6407 0.071,0.2671 0.037,0.5298 -0.101,0.7879 -0.133,0.2467 -0.33,0.4143 -0.592,0.5029 -0.253,0.0859 -0.531,0.0473 -0.835,-0.1159 -0.31,-0.1662 -0.499,-0.3785 -0.567,-0.6368 -0.06,-0.2609 -0.023,-0.5148 0.109,-0.7614 z m 6.85,6.8563 -0.656,1.2219 -5.034,-2.7013 0.656,-1.2219 z m -2.116,-4.0501 1.592,0.8542 -4.973,9.2676 c -0.169,0.3155 -0.248,0.5797 -0.237,0.7927 0.011,0.2129 0.08,0.3868 0.208,0.5215 0.127,0.1348 0.279,0.2499 0.457,0.3453 0.132,0.0708 0.276,0.1332 0.432,0.1872 0.164,0.0514 0.288,0.0885 0.372,0.1113 l -0.688,1.3039 c -0.148,-0.0275 -0.335,-0.0795 -0.56,-0.1559 -0.222,-0.0676 -0.476,-0.1783 -0.763,-0.3323 -0.39,-0.2093 -0.707,-0.4791 -0.951,-0.8095 -0.244,-0.3303 -0.367,-0.7286 -0.368,-1.1946 0.008,-0.4688 0.178,-1.0129 0.511,-1.6325 z m 5.331,15.7167 2.572,-4.7929 c 0.197,-0.3672 0.293,-0.7256 0.289,-1.0752 0.004,-0.3524 -0.1,-0.6816 -0.312,-0.9877 -0.213,-0.3062 -0.534,-0.5747 -0.965,-0.8056 -0.401,-0.2155 -0.791,-0.336 -1.169,-0.3614 -0.372,-0.0224 -0.704,0.0321 -0.996,0.1634 -0.287,0.1345 -0.499,0.3308 -0.638,0.589 l -1.592,-0.8543 c 0.179,-0.3327 0.442,-0.6164 0.789,-0.851 0.348,-0.2347 0.753,-0.3977 1.216,-0.4892 0.472,-0.0942 0.976,-0.0971 1.512,-0.0088 0.545,0.0856 1.099,0.2793 1.661,0.581 0.677,0.3632 1.212,0.7981 1.605,1.3046 0.399,0.5096 0.62,1.0752 0.663,1.6969 0.052,0.619 -0.108,1.2756 -0.48,1.9697 l -2.328,4.3369 c -0.166,0.3098 -0.317,0.6535 -0.453,1.0312 -0.131,0.3807 -0.209,0.7265 -0.235,1.0374 l -0.074,0.1377 -1.661,-0.8912 c 0.018,-0.2267 0.086,-0.5044 0.203,-0.833 0.12,-0.3344 0.251,-0.6336 0.393,-0.8975 z m 2.45,-3.9051 -0.583,1.1278 -1.609,-0.8634 c -0.453,-0.2432 -0.878,-0.423 -1.273,-0.5393 -0.393,-0.122 -0.748,-0.1759 -1.066,-0.1618 -0.318,0.0141 -0.598,0.0963 -0.842,0.2466 -0.24,0.1445 -0.437,0.3602 -0.591,0.647 -0.157,0.2926 -0.234,0.5948 -0.231,0.9065 0.002,0.3118 0.097,0.6101 0.284,0.8952 0.196,0.2823 0.489,0.5282 0.879,0.7375 0.488,0.2617 0.973,0.3893 1.457,0.3828 0.484,-0.0064 0.914,-0.1003 1.293,-0.2816 0.383,-0.1782 0.659,-0.4033 0.827,-0.6752 l 0.269,1.1307 c -0.169,0.2194 -0.421,0.4276 -0.756,0.6248 -0.335,0.1971 -0.724,0.3505 -1.167,0.46 -0.434,0.1069 -0.903,0.14 -1.405,0.0992 -0.494,-0.0433 -0.994,-0.2005 -1.498,-0.4714 -0.632,-0.3386 -1.119,-0.759 -1.463,-1.2612 -0.338,-0.4991 -0.528,-1.026 -0.57,-1.5806 -0.034,-0.5573 0.088,-1.0941 0.365,-1.6104 0.268,-0.4991 0.601,-0.8856 0.999,-1.1596 0.402,-0.2797 0.854,-0.4472 1.356,-0.5026 0.506,-0.0611 1.052,-0.0191 1.639,0.126 0.587,0.1451 1.199,0.3885 1.836,0.7302 z m 9.614,-4.5941 -7.093,13.2172 -1.6,-0.8588 7.092,-13.2173 z m -41.072,6.3791 -10.275,9.1931 -1.695,-0.9096 11.499,-9.9661 1.093,0.5864 z m -2.651,13.2843 1.972,-13.6491 0.57,-1.1239 1.092,0.5864 -1.93,15.1009 z m 2.274,-4.7535 -0.729,1.3595 -7.039,-3.7771 0.729,-1.3596 z m 6.67,-0.5546 -4.211,7.8477 -1.592,-0.8542 4.996,-9.3106 1.549,0.8311 z m 3.722,0.0462 -0.803,1.4755 c -0.117,-0.0995 -0.234,-0.1844 -0.351,-0.2548 -0.109,-0.0731 -0.238,-0.1496 -0.387,-0.2296 -0.367,-0.1971 -0.722,-0.3136 -1.065,-0.3497 -0.342,-0.0361 -0.666,-0.0033 -0.972,0.0986 -0.306,0.1019 -0.593,0.2654 -0.862,0.4907 -0.26,0.2226 -0.498,0.4939 -0.714,0.8139 l -0.586,0.018 c 0.302,-0.5622 0.639,-1.0607 1.013,-1.4956 0.38,-0.4318 0.789,-0.7738 1.227,-1.0263 0.441,-0.2581 0.9,-0.3963 1.375,-0.4146 0.484,-0.021 0.979,0.1039 1.484,0.3748 0.114,0.0616 0.239,0.1467 0.372,0.2555 0.137,0.1029 0.227,0.1842 0.269,0.2436 z m 5.772,3.1639 -0.656,1.2219 -5.034,-2.7013 0.656,-1.2219 z m -2.116,-4.0501 1.592,0.8542 -4.973,9.2676 c -0.17,0.3155 -0.249,0.5798 -0.237,0.7927 0.011,0.213 0.08,0.3868 0.207,0.5216 0.128,0.1347 0.28,0.2498 0.458,0.3452 0.132,0.0708 0.276,0.1332 0.432,0.1873 0.164,0.0513 0.288,0.0884 0.372,0.1112 l -0.689,1.304 c -0.147,-0.0276 -0.334,-0.0796 -0.559,-0.156 -0.222,-0.0676 -0.477,-0.1783 -0.763,-0.3322 -0.391,-0.2094 -0.708,-0.4792 -0.951,-0.8096 -0.244,-0.3303 -0.367,-0.7285 -0.368,-1.1946 0.008,-0.4687 0.178,-1.0129 0.51,-1.6324 z"
     fill="#ffffff"
     id="path4" />
</svg>
