<?xml version="1.0" encoding="UTF-8" standalone="no"?>
<svg
   width="200"
   height="200"
   viewBox="0 0 200 200"
   fill="none"
   version="1.1"
   id="svg6"
   xmlns="http://www.w3.org/2000/svg">
   <defs
      id="defs6" />
  <path
     d="M50 186.603C36.3332 178.712 24.7279 167.699 16.1329 154.464C7.53797 141.229 2.19738 126.147 0.54781 110.453C-1.10176 94.7582 0.98654 78.8961 6.64196 64.1632C12.2974 49.4303 21.3593 36.2451 33.0869 25.6855L65.8841 62.1104C59.9047 67.4943 55.2844 74.2168 52.401 81.7284C49.5175 89.2401 48.4528 97.3275 49.2938 105.329C50.1349 113.331 52.8578 121.021 57.24 127.769C61.6222 134.517 67.5392 140.132 74.5073 144.155L50 186.603Z"
     fill="#0BE3BF"
     id="path2" />
  <path
     d="M29.7562 111.963L29.7898 109.713C30.8661 109.846 31.8262 110.169 32.6702 110.682C33.5142 111.195 34.1793 111.912 34.6656 112.833C35.144 113.755 35.373 114.899 35.3525 116.266C35.3376 117.266 35.1365 118.173 34.7492 118.988C34.3621 119.794 33.8205 120.486 33.1243 121.061C32.4203 121.637 31.5816 122.077 30.6081 122.383C29.627 122.681 28.5388 122.821 27.3437 122.803L25.6446 122.777C24.4495 122.76 23.3699 122.587 22.4059 122.26C21.4343 121.925 20.6053 121.456 19.9189 120.852C19.2327 120.24 18.7084 119.509 18.3461 118.66C17.9837 117.811 17.8105 116.859 17.8262 115.804C17.8455 114.515 18.104 113.429 18.6017 112.546C19.0993 111.663 19.7815 110.981 20.6481 110.502C21.507 110.015 22.4998 109.721 23.6265 109.621L23.5928 111.871C22.7944 111.968 22.1078 112.161 21.5331 112.449C20.9506 112.737 20.499 113.153 20.1784 113.695C19.8577 114.237 19.6908 114.949 19.6776 115.832C19.6663 116.59 19.8008 117.26 20.0812 117.842C20.3616 118.417 20.7646 118.903 21.2899 119.302C21.8154 119.692 22.4477 119.991 23.1869 120.197C23.9261 120.404 24.7487 120.514 25.6549 120.527L27.3773 120.553C28.2132 120.566 28.9995 120.491 29.7364 120.331C30.4734 120.162 31.1219 119.902 31.6819 119.551C32.2419 119.2 32.6862 118.75 33.0147 118.2C33.3355 117.65 33.5016 116.996 33.5129 116.238C33.5273 115.277 33.3864 114.51 33.0903 113.935C32.7942 113.36 32.3632 112.924 31.7972 112.626C31.2314 112.321 30.5511 112.1 29.7562 111.963ZM19.8066 100.164L35.2711 106.045L35.2366 108.353L18.2733 101.594L18.2956 100.106L19.8066 100.164ZM35.4265 95.663L19.7928 101.09L18.2807 101.102L18.303 99.6142L35.4612 93.343L35.4265 95.663ZM29.1064 95.8614L30.9578 95.8891L30.8143 105.474L28.963 105.446L29.1064 95.8614ZM35.5645 86.4414L35.5112 90.0035L33.6719 89.9525L33.7249 86.4139C33.7431 85.1953 33.5045 84.1759 33.0089 83.3559C32.5055 82.5358 31.7959 81.9157 30.8802 81.4957C29.9568 81.0678 28.8741 80.8446 27.6321 80.826L26.5892 80.8104C25.6128 80.7957 24.7439 80.8999 23.9827 81.1229C23.2136 81.3458 22.564 81.6799 22.0339 82.1251C21.4959 82.5703 21.0853 83.1189 20.8021 83.771C20.519 84.4152 20.3711 85.1592 20.3585 86.0028L20.3009 89.8462L18.4496 89.8185L18.5071 85.9751C18.5238 84.8581 18.7266 83.8415 19.1153 82.9253C19.4963 82.009 20.0432 81.2242 20.7562 80.5707C21.4615 79.9093 22.3129 79.4064 23.3103 79.0619C24.3 78.7173 25.4119 78.5542 26.6462 78.5727L27.6656 78.5879C28.8998 78.6064 30.0103 78.8027 30.997 79.1769C31.9759 79.551 32.8078 80.083 33.4929 80.773C34.1781 81.4553 34.701 82.2757 35.0617 83.2343C35.4147 84.185 35.5823 85.254 35.5645 86.4414ZM18.4687 88.5413L35.5293 88.7966L35.4954 91.0581L18.4349 90.8027L18.4687 88.5413Z"
     fill="white"
     id="path5" />
</svg>
