<svg width="200" height="200" viewBox="0 0 200 200" fill="none" xmlns="http://www.w3.org/2000/svg">
<path d="M200 100C200 115.781 196.265 131.338 189.101 145.399C181.936 159.46 171.546 171.626 158.779 180.902C146.011 190.178 131.23 196.3 115.643 198.769C100.057 201.238 84.107 199.982 69.0983 195.106L84.2446 148.49C91.8969 150.976 100.029 151.616 107.976 150.358C115.923 149.099 123.459 145.977 129.969 141.248C136.478 136.519 141.776 130.316 145.428 123.147C149.081 115.978 150.985 108.046 150.985 100H200Z" fill="#0BE3BF"/>
<path d="M50 186.603C36.3332 178.712 24.7279 167.699 16.1329 154.464C7.53797 141.229 2.19738 126.147 0.54781 110.453C-1.10176 94.7582 0.98654 78.8961 6.64196 64.1632C12.2974 49.4303 21.3593 36.2451 33.0869 25.6855L65.8841 62.1104C59.9047 67.4943 55.2844 74.2168 52.401 81.7284C49.5175 89.2401 48.4528 97.3275 49.2938 105.329C50.1349 113.331 52.8578 121.021 57.24 127.769C61.6222 134.517 67.5392 140.132 74.5073 144.155L50 186.603Z" fill="#0BE3BF"/>
<path d="M50 13.3975C63.6668 5.50694 79.007 0.962961 94.7664 0.137046C110.526 -0.688868 126.257 2.22673 140.674 8.64546C155.09 15.0642 167.783 24.8038 177.715 37.068C187.646 49.3321 194.534 63.7726 197.815 79.2088L149.871 89.3995C148.198 81.5293 144.687 74.1667 139.623 67.9138C134.56 61.6609 128.088 56.6951 120.738 53.4225C113.387 50.1498 105.367 48.6633 97.3316 49.0844C89.2966 49.5055 81.4753 51.8223 74.5073 55.8453L50 13.3975Z" fill="#0BE3BF"/>
<circle cx="99.5" cy="99.5" r="37.5" fill="#0BE3BF"/>
<path d="M119.42 21.4769L116.804 20.0731L117.547 18.7314L120.145 20.1259C121.04 20.6061 121.886 20.8199 122.683 20.7671C123.483 20.7087 124.213 20.421 124.875 19.9042C125.545 19.3847 126.125 18.6688 126.615 17.7567L127.025 16.9909C127.41 16.2738 127.666 15.5908 127.792 14.942C127.922 14.2875 127.924 13.6788 127.797 13.1159C127.674 12.5472 127.425 12.0332 127.051 11.5739C126.682 11.1176 126.188 10.7232 125.569 10.3907L122.746 8.87618L123.476 7.51659L126.298 9.03115C127.119 9.47135 127.794 10.0108 128.323 10.6494C128.855 11.2822 129.226 11.9876 129.437 12.7656C129.656 13.5409 129.702 14.3636 129.575 15.2338C129.451 16.0982 129.146 16.9836 128.66 17.89L128.258 18.6387C127.772 19.545 127.201 20.2917 126.546 20.8787C125.894 21.4599 125.182 21.8719 124.409 22.1146C123.642 22.3604 122.834 22.4332 121.987 22.333C121.148 22.2302 120.292 21.9448 119.42 21.4769ZM124.414 8.0199L117.691 20.5488L116.03 19.6576L122.753 7.12872L124.414 8.0199ZM134.08 17.3518L129.084 26.6624L127.483 25.8035L132.479 16.4929L134.08 17.3518ZM133.684 13.9587C133.823 13.7005 134.017 13.5241 134.267 13.4294C134.524 13.3377 134.806 13.375 135.116 13.5412C135.42 13.7044 135.605 13.918 135.67 14.182C135.741 14.4491 135.707 14.7117 135.569 14.9699C135.436 15.2166 135.239 15.3842 134.977 15.4728C134.724 15.5587 134.446 15.52 134.142 15.3569C133.832 15.1907 133.643 14.9784 133.575 14.7201C133.515 14.4591 133.552 14.2053 133.684 13.9587ZM142.668 21.9601L144.113 22.7359L139.223 31.8485C138.783 32.6689 138.241 33.2795 137.598 33.6803C136.954 34.0812 136.254 34.2707 135.497 34.2488C134.743 34.2358 133.979 34.0215 133.204 33.6059C132.883 33.4335 132.532 33.1787 132.152 32.8415C131.774 32.5131 131.44 32.1161 131.151 31.6504C130.864 31.1936 130.688 30.689 130.622 30.1366L131.965 29.6379C132.102 30.3177 132.334 30.8632 132.66 31.2746C132.992 31.689 133.367 32.0086 133.786 32.2333C134.291 32.5042 134.777 32.6435 135.246 32.6512C135.715 32.6589 136.15 32.5302 136.551 32.2651C136.954 32.0088 137.301 31.611 137.59 31.0717L141.422 23.9296L142.668 21.9601ZM133.704 23.2786L133.8 23.0979C134.182 22.3865 134.612 21.7858 135.089 21.2957C135.575 20.8029 136.088 20.4318 136.628 20.1823C137.174 19.9359 137.734 19.8224 138.307 19.8419C138.884 19.8556 139.456 20.0149 140.024 20.3196C140.609 20.6336 141.064 21.0109 141.389 21.4513C141.723 21.8891 141.937 22.3847 142.032 22.9379C142.136 23.4885 142.13 24.084 142.016 24.7244C141.901 25.3648 141.693 26.0477 141.393 26.773L140.968 27.5647C140.539 28.2135 140.086 28.7611 139.61 29.2076C139.14 29.6572 138.646 29.991 138.13 30.2091C137.62 30.4303 137.089 30.5257 136.536 30.4952C135.987 30.4589 135.416 30.2823 134.826 29.9652C134.269 29.6666 133.827 29.2781 133.5 28.7997C133.179 28.3244 132.972 27.7883 132.878 27.1914C132.785 26.5945 132.806 25.963 132.942 25.297C133.086 24.6283 133.34 23.9555 133.704 23.2786ZM135.392 23.9521L135.295 24.1328C135.046 24.5975 134.858 25.0581 134.731 25.5147C134.61 25.9743 134.564 26.4113 134.593 26.8258C134.627 27.2433 134.752 27.6241 134.966 27.9682C135.184 28.3065 135.508 28.5911 135.938 28.822C136.466 29.1052 136.962 29.2273 137.426 29.1883C137.89 29.1492 138.321 29 138.719 28.7406C139.122 28.4843 139.497 28.1718 139.843 27.8031L140.955 25.7293C141.062 25.3799 141.127 25.0236 141.152 24.6602C141.186 24.2941 141.161 23.941 141.078 23.6007C141.003 23.2578 140.854 22.9374 140.63 22.6397C140.405 22.3419 140.092 22.0853 139.691 21.8698C139.255 21.6358 138.83 21.526 138.416 21.5403C138.01 21.5519 137.623 21.6615 137.253 21.8693C136.891 22.0744 136.551 22.3573 136.232 22.7181C135.922 23.0761 135.642 23.4875 135.392 23.9521ZM148.261 24.9615L143.265 34.2721L141.664 33.4132L146.66 24.1026L148.261 24.9615ZM147.865 21.5684C148.004 21.3102 148.198 21.1338 148.448 21.0391C148.705 20.9474 148.987 20.9847 149.297 21.151C149.601 21.3141 149.786 21.5277 149.851 21.7917C149.922 22.0588 149.888 22.3215 149.75 22.5796C149.617 22.8263 149.42 22.9939 149.158 23.0825C148.905 23.1684 148.627 23.1298 148.323 22.9666C148.013 22.8004 147.824 22.5881 147.756 22.3298C147.696 22.0689 147.733 21.815 147.865 21.5684ZM154.715 28.4247L154.059 29.6466L149.025 26.9453L149.681 25.7234L154.715 28.4247ZM152.599 24.3746L154.191 25.2288L149.218 34.4964C149.049 34.8119 148.97 35.0761 148.981 35.2891C148.992 35.502 149.061 35.6759 149.189 35.8106C149.316 35.9454 149.468 36.0605 149.646 36.1559C149.778 36.2267 149.922 36.2891 150.078 36.3431C150.242 36.3945 150.366 36.4316 150.45 36.4544L149.762 37.7583C149.614 37.7308 149.427 37.6788 149.202 37.6024C148.98 37.5348 148.726 37.4241 148.439 37.2701C148.049 37.0608 147.732 36.791 147.488 36.4606C147.244 36.1303 147.121 35.732 147.12 35.266C147.128 34.7972 147.298 34.2531 147.631 33.6335L152.599 24.3746ZM157.93 40.0913L160.502 35.2984C160.699 34.9312 160.795 34.5728 160.791 34.2232C160.795 33.8708 160.691 33.5416 160.479 33.2355C160.266 32.9293 159.945 32.6608 159.514 32.4299C159.113 32.2144 158.723 32.0939 158.345 32.0685C157.973 32.0461 157.641 32.1006 157.349 32.2319C157.062 32.3664 156.85 32.5627 156.711 32.8209L155.119 31.9666C155.298 31.6339 155.561 31.3502 155.908 31.1156C156.256 30.8809 156.661 30.7179 157.124 30.6264C157.596 30.5322 158.1 30.5293 158.636 30.6176C159.181 30.7032 159.735 30.8969 160.297 31.1986C160.974 31.5618 161.509 31.9967 161.902 32.5032C162.301 33.0128 162.522 33.5784 162.565 34.2001C162.617 34.8191 162.457 35.4757 162.085 36.1698L159.757 40.5067C159.591 40.8165 159.44 41.1602 159.304 41.5379C159.173 41.9186 159.095 42.2644 159.069 42.5753L158.995 42.713L157.334 41.8218C157.352 41.5951 157.42 41.3174 157.537 40.9888C157.657 40.6544 157.788 40.3552 157.93 40.0913ZM160.38 36.1862L159.797 37.314L158.188 36.4506C157.735 36.2074 157.31 36.0276 156.915 35.9113C156.522 35.7893 156.167 35.7354 155.849 35.7495C155.531 35.7636 155.251 35.8458 155.007 35.9961C154.767 36.1406 154.57 36.3563 154.416 36.6431C154.259 36.9357 154.182 37.2379 154.185 37.5496C154.187 37.8614 154.282 38.1597 154.469 38.4448C154.665 38.7271 154.958 38.973 155.348 39.1823C155.836 39.444 156.321 39.5716 156.805 39.5651C157.289 39.5587 157.719 39.4648 158.098 39.2835C158.481 39.1053 158.757 38.8802 158.925 38.6083L159.194 39.739C159.025 39.9584 158.773 40.1666 158.438 40.3638C158.103 40.5609 157.714 40.7143 157.271 40.8238C156.837 40.9307 156.368 40.9638 155.866 40.923C155.372 40.8797 154.872 40.7225 154.368 40.4516C153.736 40.113 153.249 39.6926 152.905 39.1904C152.567 38.6913 152.377 38.1644 152.335 37.6098C152.301 37.0525 152.423 36.5157 152.7 35.9994C152.968 35.5003 153.301 35.1138 153.699 34.8398C154.101 34.5601 154.553 34.3926 155.055 34.3372C155.561 34.2761 156.107 34.3181 156.694 34.4632C157.281 34.6083 157.893 34.8517 158.53 35.1934L160.38 36.1862ZM169.994 31.5921L162.901 44.8093L161.301 43.9505L168.393 30.7332L169.994 31.5921ZM128.922 37.9712L118.647 47.1643L116.952 46.2547L128.451 36.2886L129.544 36.875L128.922 37.9712ZM126.271 51.2555L128.243 37.6064L128.813 36.4825L129.905 37.0689L127.975 52.1698L126.271 51.2555ZM128.545 46.502L127.816 47.8615L120.777 44.0844L121.506 42.7248L128.545 46.502ZM135.215 45.9474L131.004 53.7951L129.412 52.9409L134.408 43.6303L135.957 44.4614L135.215 45.9474ZM138.937 45.9936L138.134 47.4691C138.017 47.3696 137.9 47.2847 137.783 47.2143C137.674 47.1412 137.545 47.0647 137.396 46.9847C137.029 46.7876 136.674 46.6711 136.331 46.635C135.989 46.5989 135.665 46.6317 135.359 46.7336C135.053 46.8355 134.766 46.999 134.497 47.2243C134.237 47.4469 133.999 47.7182 133.783 48.0382L133.197 48.0562C133.499 47.494 133.836 46.9955 134.21 46.5606C134.59 46.1288 134.999 45.7868 135.437 45.5343C135.878 45.2762 136.337 45.138 136.812 45.1197C137.296 45.0987 137.791 45.2236 138.296 45.4945C138.41 45.5561 138.535 45.6412 138.668 45.75C138.805 45.8529 138.895 45.9342 138.937 45.9936ZM144.709 49.1575L144.053 50.3794L139.019 47.6781L139.675 46.4562L144.709 49.1575ZM142.593 45.1074L144.185 45.9616L139.212 55.2292C139.042 55.5447 138.963 55.809 138.975 56.0219C138.986 56.2349 139.055 56.4087 139.182 56.5435C139.31 56.6782 139.462 56.7933 139.64 56.8887C139.772 56.9595 139.916 57.0219 140.072 57.076C140.236 57.1273 140.36 57.1644 140.444 57.1872L139.755 58.4912C139.608 58.4636 139.421 58.4116 139.196 58.3352C138.974 58.2676 138.719 58.1569 138.433 58.003C138.042 57.7936 137.725 57.5238 137.482 57.1934C137.238 56.8631 137.115 56.4649 137.114 55.9988C137.122 55.5301 137.292 54.9859 137.624 54.3664L142.593 45.1074Z" fill="white"/>
<path d="M29.7562 111.963L29.7898 109.713C30.8661 109.846 31.8262 110.169 32.6702 110.682C33.5142 111.195 34.1793 111.912 34.6656 112.833C35.144 113.755 35.373 114.899 35.3525 116.266C35.3376 117.266 35.1365 118.173 34.7492 118.988C34.3621 119.794 33.8205 120.486 33.1243 121.061C32.4203 121.637 31.5816 122.077 30.6081 122.383C29.627 122.681 28.5388 122.821 27.3437 122.803L25.6446 122.777C24.4495 122.76 23.3699 122.587 22.4059 122.26C21.4343 121.925 20.6053 121.456 19.9189 120.852C19.2327 120.24 18.7084 119.509 18.3461 118.66C17.9837 117.811 17.8105 116.859 17.8262 115.804C17.8455 114.515 18.104 113.429 18.6017 112.546C19.0993 111.663 19.7815 110.981 20.6481 110.502C21.507 110.015 22.4998 109.721 23.6265 109.621L23.5928 111.871C22.7944 111.968 22.1078 112.161 21.5331 112.449C20.9506 112.737 20.499 113.153 20.1784 113.695C19.8577 114.237 19.6908 114.949 19.6776 115.832C19.6663 116.59 19.8008 117.26 20.0812 117.842C20.3616 118.417 20.7646 118.903 21.2899 119.302C21.8154 119.692 22.4477 119.991 23.1869 120.197C23.9261 120.404 24.7487 120.514 25.6549 120.527L27.3773 120.553C28.2132 120.566 28.9995 120.491 29.7364 120.331C30.4734 120.162 31.1219 119.902 31.6819 119.551C32.2419 119.2 32.6862 118.75 33.0147 118.2C33.3355 117.65 33.5016 116.996 33.5129 116.238C33.5273 115.277 33.3864 114.51 33.0903 113.935C32.7942 113.36 32.3632 112.924 31.7972 112.626C31.2314 112.321 30.5511 112.1 29.7562 111.963ZM19.8066 100.164L35.2711 106.045L35.2366 108.353L18.2733 101.594L18.2956 100.106L19.8066 100.164ZM35.4265 95.663L19.7928 101.09L18.2807 101.102L18.303 99.6142L35.4612 93.343L35.4265 95.663ZM29.1064 95.8614L30.9578 95.8891L30.8143 105.474L28.963 105.446L29.1064 95.8614ZM35.5645 86.4414L35.5112 90.0035L33.6719 89.9525L33.7249 86.4139C33.7431 85.1953 33.5045 84.1759 33.0089 83.3559C32.5055 82.5358 31.7959 81.9157 30.8802 81.4957C29.9568 81.0678 28.8741 80.8446 27.6321 80.826L26.5892 80.8104C25.6128 80.7957 24.7439 80.8999 23.9827 81.1229C23.2136 81.3458 22.564 81.6799 22.0339 82.1251C21.4959 82.5703 21.0853 83.1189 20.8021 83.771C20.519 84.4152 20.3711 85.1592 20.3585 86.0028L20.3009 89.8462L18.4496 89.8185L18.5071 85.9751C18.5238 84.8581 18.7266 83.8415 19.1153 82.9253C19.4963 82.009 20.0432 81.2242 20.7562 80.5707C21.4615 79.9093 22.3129 79.4064 23.3103 79.0619C24.3 78.7173 25.4119 78.5542 26.6462 78.5727L27.6656 78.5879C28.8998 78.6064 30.0103 78.8027 30.997 79.1769C31.9759 79.551 32.8078 80.083 33.4929 80.773C34.1781 81.4553 34.701 82.2757 35.0617 83.2343C35.4147 84.185 35.5823 85.254 35.5645 86.4414ZM18.4687 88.5413L35.5293 88.7966L35.4954 91.0581L18.4349 90.8027L18.4687 88.5413Z" fill="white"/>
<path d="M165.372 147.206L161.287 131.173L163.195 129.874L167.424 147.637L166.194 148.475L165.372 147.206ZM152.705 137.018L166.138 146.685L167.018 147.914L165.788 148.752L150.787 138.325L152.705 137.018ZM156.503 142.074L155.461 140.544L163.384 135.147L164.426 136.678L156.503 142.074ZM159.313 154.297L157.511 155.524L148.764 142.681L147.533 140.541L149.18 139.42L159.313 154.297ZM143.926 150.796L143.788 150.593C143.269 149.831 142.878 149.062 142.614 148.287C142.355 147.518 142.237 146.776 142.261 146.061C142.284 145.345 142.457 144.684 142.781 144.076C143.104 143.468 143.592 142.942 144.244 142.498C144.909 142.045 145.57 141.76 146.228 141.643C146.883 141.537 147.529 141.584 148.166 141.783C148.803 141.983 149.434 142.319 150.058 142.791C150.676 143.268 151.286 143.865 151.887 144.58L152.493 145.471C152.944 146.299 153.278 147.088 153.495 147.837C153.707 148.592 153.788 149.302 153.741 149.967C153.698 150.639 153.504 151.258 153.161 151.822C152.822 152.394 152.324 152.903 151.665 153.352C151.006 153.801 150.334 154.07 149.648 154.159C148.966 154.254 148.294 154.183 147.631 153.945C146.961 153.711 146.311 153.326 145.682 152.791C145.057 152.262 144.472 151.597 143.926 150.796ZM145.589 149.366L145.728 149.569C146.084 150.092 146.467 150.55 146.876 150.942C147.289 151.341 147.722 151.643 148.172 151.846C148.627 152.056 149.097 152.142 149.582 152.105C150.071 152.074 150.571 151.885 151.081 151.538C151.533 151.23 151.874 150.884 152.105 150.5C152.328 150.121 152.466 149.72 152.518 149.297C152.575 148.88 152.563 148.453 152.483 148.017C152.401 147.591 152.274 147.176 152.103 146.772L150.513 144.438C150.102 144.056 149.638 143.735 149.119 143.473C148.599 143.223 148.052 143.099 147.477 143.103C146.897 143.111 146.313 143.315 145.725 143.715C145.241 144.045 144.893 144.423 144.683 144.85C144.471 145.288 144.377 145.754 144.401 146.247C144.419 146.746 144.533 147.259 144.742 147.788C144.951 148.317 145.233 148.843 145.589 149.366ZM141.996 151.813L142.148 152.036C142.662 152.791 143.03 153.567 143.25 154.362C143.475 155.164 143.543 155.944 143.455 156.703C143.372 157.469 143.127 158.185 142.719 158.85C142.316 159.521 141.75 160.105 141.021 160.602C140.284 161.103 139.53 161.419 138.758 161.548C137.984 161.688 137.225 161.656 136.482 161.453C135.737 161.261 135.032 160.914 134.368 160.411C133.709 159.915 133.122 159.289 132.608 158.534L132.456 158.311C131.941 157.556 131.574 156.78 131.354 155.985C131.133 155.19 131.068 154.407 131.158 153.637C131.246 152.878 131.491 152.162 131.894 151.491C132.295 150.83 132.863 150.25 133.599 149.748C134.335 149.247 135.087 148.928 135.855 148.793C136.628 148.664 137.386 148.695 138.132 148.887C138.875 149.09 139.576 149.44 140.235 149.936C140.895 150.432 141.482 151.058 141.996 151.813ZM140.356 153.256L140.204 153.034C139.848 152.511 139.45 152.058 139.011 151.677C138.576 151.302 138.115 151.021 137.628 150.833C137.134 150.649 136.629 150.582 136.114 150.63C135.603 150.685 135.099 150.882 134.602 151.22C134.111 151.555 133.75 151.947 133.518 152.398C133.285 152.86 133.166 153.352 133.163 153.874C133.159 154.396 133.252 154.928 133.442 155.47C133.629 156.023 133.901 156.561 134.257 157.084L134.409 157.307C134.761 157.824 135.158 158.267 135.599 158.638C136.038 159.019 136.505 159.301 136.999 159.485C137.49 159.679 137.994 159.752 138.509 159.704C139.018 159.66 139.521 159.469 140.018 159.13C140.509 158.796 140.871 158.398 141.105 157.936C141.332 157.479 141.448 156.983 141.454 156.45C141.457 155.928 141.362 155.393 141.168 154.844C140.979 154.302 140.708 153.773 140.356 153.256ZM121.956 161.507L127.445 169.565L125.644 170.792L118.506 160.312L120.22 159.145L121.956 161.507ZM123.122 163.946L122.389 164.473C121.914 163.776 121.548 163.08 121.292 162.384C121.034 161.7 120.919 161.032 120.947 160.379C120.976 159.727 121.168 159.099 121.524 158.498C121.884 157.903 122.438 157.35 123.187 156.84C123.698 156.492 124.216 156.248 124.744 156.106C125.264 155.969 125.782 155.952 126.297 156.055C126.811 156.158 127.322 156.401 127.828 156.784C128.328 157.171 128.816 157.714 129.291 158.411L133.896 165.171L132.104 166.392L127.486 159.612C127.165 159.141 126.847 158.785 126.533 158.546C126.216 158.317 125.906 158.174 125.602 158.116C125.296 158.069 125.006 158.087 124.732 158.17C124.451 158.258 124.188 158.385 123.942 158.552C123.18 159.071 122.676 159.627 122.428 160.221C122.185 160.822 122.136 161.437 122.281 162.066C122.423 162.706 122.704 163.332 123.122 163.946ZM118.525 175.641L117.588 174.265L123.254 170.406L124.191 171.782L118.525 175.641ZM124.008 175.635L122.216 176.856L115.111 166.424C114.869 166.069 114.632 165.839 114.399 165.732C114.166 165.626 113.943 165.604 113.729 165.664C113.515 165.725 113.308 165.824 113.108 165.96C112.959 166.061 112.813 166.179 112.669 166.315C112.523 166.462 112.415 166.573 112.344 166.65L111.338 165.194C111.45 165.052 111.608 164.883 111.814 164.686C112.01 164.486 112.269 164.277 112.592 164.057C113.031 163.758 113.494 163.57 113.98 163.494C114.467 163.418 114.959 163.508 115.455 163.765C115.95 164.033 116.435 164.516 116.91 165.213L124.008 175.635Z" fill="white"/>
</svg>
