<?xml version="1.0" encoding="UTF-8" standalone="no"?>
<svg
   width="200"
   height="200"
   viewBox="0 0 200 200"
   fill="none"
   version="1.1"
   id="svg6"
   xmlns="http://www.w3.org/2000/svg"><defs
     id="defs6" /><circle
     cx="99.5"
     cy="99.5"
     r="37.5"
     fill="#0BE3BF"
     id="circle3" /><g
     style="fill:#ffffff"
     id="g6"
     transform="matrix(0.05,0,0,0.05,76,123.5)"><path
       d="m 240,-200 h 120 v -200 q 0,-17 11.5,-28.5 Q 383,-440 400,-440 h 160 q 17,0 28.5,11.5 11.5,11.5 11.5,28.5 v 200 H 720 V -560 L 480,-740 240,-560 Z m -80,0 v -360 q 0,-19 8.5,-36 8.5,-17 23.5,-28 l 240,-180 q 21,-16 48,-16 27,0 48,16 l 240,180 q 15,11 23.5,28 8.5,17 8.5,36 v 360 q 0,33 -23.5,56.5 Q 753,-120 720,-120 H 560 q -17,0 -28.5,-11.5 Q 520,-143 520,-160 v -200 h -80 v 200 q 0,17 -11.5,28.5 Q 417,-120 400,-120 H 240 q -33,0 -56.5,-23.5 Q 160,-167 160,-200 Z m 320,-270 z"
       id="path1-3"
       style="fill:#ffffff" /></g></svg>
