<?xml version="1.0" encoding="UTF-8" standalone="no"?>
<svg
   width="200"
   height="200"
   viewBox="0 0 200 200"
   fill="none"
   version="1.1"
   id="svg6"
   xmlns="http://www.w3.org/2000/svg">
   <defs
     id="defs6" />
   <path
     d="M50 186.603C36.3332 178.712 24.7279 167.699 16.1329 154.464C7.53797 141.229 2.19738 126.147 0.54781 110.453C-1.10176 94.7582 0.98654 78.8961 6.64196 64.1632C12.2974 49.4303 21.3593 36.2451 33.0869 25.6855L65.8841 62.1104C59.9047 67.4943 55.2844 74.2168 52.401 81.7284C49.5175 89.2401 48.4528 97.3275 49.2938 105.329C50.1349 113.331 52.8578 121.021 57.24 127.769C61.6222 134.517 67.5392 140.132 74.5073 144.155L50 186.603Z"
     fill="#0BE3BF"
     id="path2" /><g
     style="fill:#ffffff"
     id="g8"
     transform="matrix(0.04444444,0,0,0.04444444,2.2988965,123.75574)"><path
       d="m 485.18,-138 v -274 l -240,-139 v 274 z m 80,0 240,-139 v -274 l -240,139 z m -40,-343 237,-137 -237,-137 -237,137 z m -320,274 q -19,-11 -29.5,-29 -10.5,-18 -10.5,-40 v -318 q 0,-22 10.5,-40 10.5,-18 29.5,-29 l 280,-161 q 19,-11 40,-11 21,0 40,11 l 280,161 q 19,11 29.5,29 10.5,18 10.5,40 v 318 q 0,22 -10.5,40 -10.5,18 -29.5,29 l -280,161.00001 q -19,11 -40,11 -21,0 -40,-11 z m 320,-228 z"
       id="path1-7"
       style="fill:#ffffff" /></g></svg>
