<?xml version="1.0" encoding="UTF-8" standalone="no"?>
<svg
   width="200"
   height="200"
   viewBox="0 0 200 200"
   fill="none"
   version="1.1"
   id="svg6"
   sodipodi:docname="fab.svg"
   xml:space="preserve"
   inkscape:version="1.4.2 (ebf0e940d0, 2025-05-08)"
   xmlns:inkscape="http://www.inkscape.org/namespaces/inkscape"
   xmlns:sodipodi="http://sodipodi.sourceforge.net/DTD/sodipodi-0.dtd"
   xmlns="http://www.w3.org/2000/svg"
   xmlns:svg="http://www.w3.org/2000/svg"><defs
     id="defs6" /><sodipodi:namedview
     id="namedview6"
     pagecolor="#ffffff"
     bordercolor="#000000"
     borderopacity="0.25"
     inkscape:showpageshadow="2"
     inkscape:pageopacity="0.0"
     inkscape:pagecheckerboard="0"
     inkscape:deskcolor="#d1d1d1"
     inkscape:zoom="2.2322618"
     inkscape:cx="94.970937"
     inkscape:cy="69.436298"
     inkscape:window-width="1920"
     inkscape:window-height="1164"
     inkscape:window-x="0"
     inkscape:window-y="0"
     inkscape:window-maximized="1"
     inkscape:current-layer="svg6" /><path
     d="M200 100C200 115.781 196.265 131.338 189.101 145.399C181.936 159.46 171.546 171.626 158.779 180.902C146.011 190.178 131.23 196.3 115.643 198.769C100.057 201.238 84.107 199.982 69.0983 195.106L84.2446 148.49C91.8969 150.976 100.029 151.616 107.976 150.358C115.923 149.099 123.459 145.977 129.969 141.248C136.478 136.519 141.776 130.316 145.428 123.147C149.081 115.978 150.985 108.046 150.985 100H200Z"
     fill="#0BE3BF"
     id="path1" /><path
     d="M50 186.603C36.3332 178.712 24.7279 167.699 16.1329 154.464C7.53797 141.229 2.19738 126.147 0.54781 110.453C-1.10176 94.7582 0.98654 78.8961 6.64196 64.1632C12.2974 49.4303 21.3593 36.2451 33.0869 25.6855L65.8841 62.1104C59.9047 67.4943 55.2844 74.2168 52.401 81.7284C49.5175 89.2401 48.4528 97.3275 49.2938 105.329C50.1349 113.331 52.8578 121.021 57.24 127.769C61.6222 134.517 67.5392 140.132 74.5073 144.155L50 186.603Z"
     fill="#0BE3BF"
     id="path2" /><path
     d="M50 13.3975C63.6668 5.50694 79.007 0.962961 94.7664 0.137046C110.526 -0.688868 126.257 2.22673 140.674 8.64546C155.09 15.0642 167.783 24.8038 177.715 37.068C187.646 49.3321 194.534 63.7726 197.815 79.2088L149.871 89.3995C148.198 81.5293 144.687 74.1667 139.623 67.9138C134.56 61.6609 128.088 56.6951 120.738 53.4225C113.387 50.1498 105.367 48.6633 97.3316 49.0844C89.2966 49.5055 81.4753 51.8223 74.5073 55.8453L50 13.3975Z"
     fill="#0BE3BF"
     id="path3" /><circle
     cx="99.5"
     cy="99.5"
     r="37.5"
     fill="#0BE3BF"
     id="circle3" /><g
     style="fill:#ffffff"
     id="g6"
     transform="matrix(0.05,0,0,0.05,76,123.5)"><path
       d="m 240,-200 h 120 v -200 q 0,-17 11.5,-28.5 Q 383,-440 400,-440 h 160 q 17,0 28.5,11.5 11.5,11.5 11.5,28.5 v 200 H 720 V -560 L 480,-740 240,-560 Z m -80,0 v -360 q 0,-19 8.5,-36 8.5,-17 23.5,-28 l 240,-180 q 21,-16 48,-16 27,0 48,16 l 240,180 q 15,11 23.5,28 8.5,17 8.5,36 v 360 q 0,33 -23.5,56.5 Q 753,-120 720,-120 H 560 q -17,0 -28.5,-11.5 Q 520,-143 520,-160 v -200 h -80 v 200 q 0,17 -11.5,28.5 Q 417,-120 400,-120 H 240 q -33,0 -56.5,-23.5 Q 160,-167 160,-200 Z m 320,-270 z"
       id="path1-3"
       style="fill:#ffffff" /></g><g
     style="fill:#ffffff"
     id="g7"
     transform="matrix(0.05,0,0,0.05,119.43349,181.63267)"><path
       d="m 480,-480 q -66,0 -113,-47 -47,-47 -47,-113 0,-66 47,-113 47,-47 113,-47 66,0 113,47 47,47 47,113 0,66 -47,113 -47,47 -113,47 z m -320,240 v -32 q 0,-34 17.5,-62.5 17.5,-28.5 46.5,-43.5 62,-31 126,-46.5 64,-15.5 130,-15.5 66,0 130,15.5 64,15.5 126,46.5 29,15 46.5,43.5 17.5,28.5 17.5,62.5 v 32 q 0,33 -23.5,56.5 Q 753,-160 720,-160 H 240 q -33,0 -56.5,-23.5 Q 160,-207 160,-240 Z m 80,0 h 480 v -32 q 0,-11 -5.5,-20 -5.5,-9 -14.5,-14 -54,-27 -109,-40.5 -55,-13.5 -111,-13.5 -56,0 -111,13.5 -55,13.5 -109,40.5 -9,5 -14.5,14 -5.5,9 -5.5,20 z m 240,-320 q 33,0 56.5,-23.5 Q 560,-607 560,-640 560,-673 536.5,-696.5 513,-720 480,-720 q -33,0 -56.5,23.5 -23.5,23.5 -23.5,56.5 0,33 23.5,56.5 23.5,23.5 56.5,23.5 z m 0,-80 z m 0,400 z"
       id="path1-6"
       style="fill:#ffffff" /></g><g
     style="fill:#ffffff"
     id="g8"
     transform="matrix(0.04444444,0,0,0.04444444,2.2988965,123.75574)"><path
       d="m 485.18,-138 v -274 l -240,-139 v 274 z m 80,0 240,-139 v -274 l -240,139 z m -40,-343 237,-137 -237,-137 -237,137 z m -320,274 q -19,-11 -29.5,-29 -10.5,-18 -10.5,-40 v -318 q 0,-22 10.5,-40 10.5,-18 29.5,-29 l 280,-161 q 19,-11 40,-11 21,0 40,11 l 280,161 q 19,11 29.5,29 10.5,18 10.5,40 v 318 q 0,22 -10.5,40 -10.5,18 -29.5,29 l -280,161.00001 q -19,11 -40,11 -21,0 -40,-11 z m 320,-228 z"
       id="path1-7"
       style="fill:#ffffff" /></g><g
     style="fill:#ffffff"
     id="g9"
     transform="matrix(0.04,0,0,0.04,114.233,49.76)"><path
       d="m 160,-80 q -33,0 -56.5,-23.5 Q 80,-127 80,-160 v -480 q 0,-33 23.5,-56.5 Q 127,-720 160,-720 h 160 l 132,-132 q 12,-12 28,-12 16,0 28,12 l 132,132 h 160 q 33,0 56.5,23.5 23.5,23.5 23.5,56.5 v 480 q 0,33 -23.5,56.5 Q 833,-80 800,-80 Z m 0,-80 H 800 V -640 H 160 Z m 290,-120 -74,-99 q -6,-8 -16,-8 -10,0 -16,8 l -80,107 q -8,10 -2,21 6,11 18,11 h 400 q 12,0 18,-11 6,-11 -2,-21 L 586,-419 q -6,-8 -16,-8 -10,0 -16,8 z m 250,-160 q 25,0 42.5,-17.5 Q 760,-475 760,-500 760,-525 742.5,-542.5 725,-560 700,-560 q -25,0 -42.5,17.5 -17.5,17.5 -17.5,42.5 0,25 17.5,42.5 Q 675,-440 700,-440 Z M 404,-720 h 152 l -76,-76 z m -244,560 v -480 z"
       id="path1-62"
       style="fill:#ffffff" /></g></svg>
